<?xml version="1.0" encoding="utf-8"?>
<!-- Generator: Adobe Illustrator 23.1.0, SVG Export Plug-In . SVG Version: 6.00 Build 0)  -->
<svg version="1.1" xmlns="http://www.w3.org/2000/svg" xmlns:xlink="http://www.w3.org/1999/xlink" x="0px" y="0px"
	 viewBox="0 0 200 50" style="enable-background:new 0 0 200 50;" xml:space="preserve">
<style type="text/css">
	.st0{fill:#FFFFFF;}
	.st1{fill:none;}
	.st2{font-family:'Lato-Bold';}
	.st3{font-size:39px;}
	.st4{letter-spacing:1;}
	.st5{fill:none;stroke:#000000;stroke-linecap:round;stroke-miterlimit:10;}
	.st6{fill:none;stroke:#000000;stroke-linecap:round;stroke-miterlimit:10;stroke-dasharray:12.5087,12.5087;}
	.st7{stroke:#000000;stroke-linecap:round;stroke-linejoin:round;stroke-miterlimit:10;}
</style>
<g id="Layer_2">
	<rect class="st0" width="200" height="50"/>
</g>
<g id="Layer_1">
	<rect x="54.12" y="8.92" class="st1" width="135.88" height="34.01"/>
	<text transform="matrix(1 0 0 1 54.1191 37.8955)" class="st2 st3 st4">Evento</text>
	<g>
		<g>
			<path class="st5" d="M27,9c0,0-2.33,0.9-5.49,2.41"/>
			<path class="st6" d="M10.74,17.72c-13.47,10.15-15.28,25.81,96,28.09"/>
			<path class="st5" d="M113,45.92c1.97,0.03,3.97,0.06,6,0.08"/>
		</g>
	</g>
	<g>
		<path class="st7" d="M28.5,27.51c1.81,1.42-1.41,5.5-1.41,5.5l2.71,2.14l13.93-17.67l-2.71-2.14c-2.14,2.72-3.95,1.29-3.95,1.29
			s-1.81-1.42,0.34-4.14l-2.71-2.14L20.77,28.02l2.71,2.14C23.48,30.16,26.69,26.08,28.5,27.51z"/>
		<path class="st0" d="M31.37,27.47l-3.5-2.76c-0.34-0.26-0.39-0.75-0.13-1.09l5.24-6.64c0.26-0.34,0.75-0.39,1.09-0.13l3.5,2.76
			c0.34,0.26,0.39,0.75,0.13,1.09l-5.24,6.64C32.19,27.67,31.7,27.73,31.37,27.47z"/>
	</g>
</g>
</svg>
